<svg xmlns="http://www.w3.org/2000/svg" width="400" height="124" viewBox="0 0 400 124" fill="none">
<rect x="0.643555" y="1.02649" width="398.518" height="121.866" rx="9.5" fill="#F8F8F8" stroke="#EAEAEA"/>
<path d="M121.662 87.6721V94.6161H120.612V87.6721H121.662ZM124.532 90.6121V91.6621H117.728V90.6121H124.532ZM139.083 93.2021C138.887 93.7248 138.607 94.1774 138.243 94.5601C137.879 94.9334 137.45 95.2181 136.955 95.4141C136.47 95.6101 135.938 95.7081 135.359 95.7081C134.482 95.7081 133.721 95.5168 133.077 95.1341C132.442 94.7421 131.948 94.1914 131.593 93.4821C131.248 92.7728 131.075 91.9281 131.075 90.9481C131.075 89.9681 131.248 89.1234 131.593 88.4141C131.948 87.7048 132.442 87.1588 133.077 86.7761C133.721 86.3841 134.472 86.1881 135.331 86.1881C135.928 86.1881 136.46 86.2721 136.927 86.4401C137.394 86.5988 137.79 86.8414 138.117 87.1681C138.453 87.4854 138.719 87.8774 138.915 88.3441L137.809 88.8621C137.604 88.3301 137.305 87.9288 136.913 87.6581C136.53 87.3781 136.031 87.2381 135.415 87.2381C134.79 87.2381 134.239 87.3874 133.763 87.6861C133.287 87.9754 132.914 88.3954 132.643 88.9461C132.382 89.4968 132.251 90.1641 132.251 90.9481C132.251 91.7228 132.377 92.3901 132.629 92.9501C132.881 93.5008 133.24 93.9254 133.707 94.2241C134.174 94.5134 134.724 94.6581 135.359 94.6581C135.975 94.6581 136.512 94.5041 136.969 94.1961C137.426 93.8788 137.758 93.4074 137.963 92.7821L139.083 93.2021ZM142.087 85.3481V93.7901C142.087 94.1448 142.152 94.3921 142.283 94.5321C142.413 94.6628 142.623 94.7281 142.913 94.7281C143.099 94.7281 143.253 94.7141 143.375 94.6861C143.496 94.6581 143.659 94.6068 143.865 94.5321L143.683 95.5121C143.533 95.5774 143.37 95.6241 143.193 95.6521C143.015 95.6894 142.833 95.7081 142.647 95.7081C142.077 95.7081 141.653 95.5541 141.373 95.2461C141.102 94.9381 140.967 94.4668 140.967 93.8321V85.3481H142.087ZM145.862 87.2241C145.61 87.2241 145.405 87.1494 145.246 87.0001C145.097 86.8414 145.022 86.6361 145.022 86.3841C145.022 86.1321 145.097 85.9314 145.246 85.7821C145.405 85.6234 145.61 85.5441 145.862 85.5441C146.114 85.5441 146.315 85.6234 146.464 85.7821C146.623 85.9314 146.702 86.1321 146.702 86.3841C146.702 86.6361 146.623 86.8414 146.464 87.0001C146.315 87.1494 146.114 87.2241 145.862 87.2241ZM146.422 88.5681V95.5681H145.302V88.5681H146.422ZM151.919 88.4281C152.404 88.4281 152.829 88.5028 153.193 88.6521C153.566 88.8014 153.888 89.0161 154.159 89.2961C154.429 89.5761 154.649 89.9074 154.817 90.2901L153.753 90.7941C153.603 90.3461 153.375 90.0054 153.067 89.7721C152.768 89.5294 152.376 89.4081 151.891 89.4081C151.424 89.4081 151.023 89.5154 150.687 89.7301C150.351 89.9354 150.094 90.2388 149.917 90.6401C149.739 91.0321 149.651 91.5081 149.651 92.0681C149.651 92.6188 149.739 93.0948 149.917 93.4961C150.094 93.8974 150.351 94.2054 150.687 94.4201C151.023 94.6254 151.424 94.7281 151.891 94.7281C152.255 94.7281 152.567 94.6721 152.829 94.5601C153.099 94.4481 153.319 94.2848 153.487 94.0701C153.664 93.8554 153.785 93.5941 153.851 93.2861L154.887 93.6501C154.728 94.0794 154.509 94.4481 154.229 94.7561C153.958 95.0641 153.627 95.3021 153.235 95.4701C152.852 95.6288 152.413 95.7081 151.919 95.7081C151.265 95.7081 150.682 95.5634 150.169 95.2741C149.655 94.9848 149.254 94.5694 148.965 94.0281C148.675 93.4774 148.531 92.8241 148.531 92.0681C148.531 91.3121 148.675 90.6634 148.965 90.1221C149.254 89.5714 149.655 89.1514 150.169 88.8621C150.682 88.5728 151.265 88.4281 151.919 88.4281ZM163.001 88.5681L159.977 91.5921L159.711 91.8581L157.415 94.1541V92.7541L161.587 88.5681H163.001ZM157.975 85.3481V95.5681H156.855V85.3481H157.975ZM160.075 91.0181L163.169 95.5681H161.811L159.137 91.6481L160.075 91.0181ZM172.153 88.4281C172.816 88.4281 173.399 88.5728 173.903 88.8621C174.416 89.1514 174.818 89.5714 175.107 90.1221C175.396 90.6634 175.541 91.3121 175.541 92.0681C175.541 92.8241 175.396 93.4774 175.107 94.0281C174.818 94.5694 174.416 94.9848 173.903 95.2741C173.399 95.5634 172.816 95.7081 172.153 95.7081C171.5 95.7081 170.916 95.5634 170.403 95.2741C169.89 94.9848 169.488 94.5694 169.199 94.0281C168.91 93.4774 168.765 92.8241 168.765 92.0681C168.765 91.3121 168.91 90.6634 169.199 90.1221C169.488 89.5714 169.89 89.1514 170.403 88.8621C170.916 88.5728 171.5 88.4281 172.153 88.4281ZM172.153 89.3941C171.677 89.3941 171.271 89.5014 170.935 89.7161C170.599 89.9308 170.338 90.2388 170.151 90.6401C169.974 91.0321 169.885 91.5081 169.885 92.0681C169.885 92.6188 169.974 93.0948 170.151 93.4961C170.338 93.8974 170.599 94.2054 170.935 94.4201C171.271 94.6348 171.677 94.7421 172.153 94.7421C172.629 94.7421 173.035 94.6348 173.371 94.4201C173.707 94.2054 173.964 93.8974 174.141 93.4961C174.328 93.0948 174.421 92.6188 174.421 92.0681C174.421 91.5081 174.328 91.0321 174.141 90.6401C173.964 90.2388 173.707 89.9308 173.371 89.7161C173.035 89.5014 172.629 89.3941 172.153 89.3941ZM177.65 95.5681V88.5681H178.56L178.714 89.7161C178.91 89.2868 179.194 88.9648 179.568 88.7501C179.95 88.5354 180.412 88.4281 180.954 88.4281C181.075 88.4281 181.206 88.4374 181.346 88.4561C181.495 88.4748 181.621 88.5121 181.724 88.5681L181.528 89.5901C181.425 89.5528 181.313 89.5248 181.192 89.5061C181.07 89.4874 180.898 89.4781 180.674 89.4781C180.384 89.4781 180.09 89.5621 179.792 89.7301C179.502 89.8981 179.26 90.1548 179.064 90.5001C178.868 90.8361 178.77 91.2654 178.77 91.7881V95.5681H177.65ZM190.538 95.7081C189.959 95.7081 189.427 95.5634 188.942 95.2741C188.457 94.9848 188.069 94.5694 187.78 94.0281C187.491 93.4774 187.346 92.8241 187.346 92.0681C187.346 91.2934 187.5 90.6354 187.808 90.0941C188.116 89.5528 188.522 89.1421 189.026 88.8621C189.53 88.5728 190.071 88.4281 190.65 88.4281C191.229 88.4281 191.728 88.5774 192.148 88.8761C192.577 89.1748 192.862 89.5714 193.002 90.0661L192.862 90.1641V85.3481H193.982V95.5681H193.002L192.904 93.8741L193.058 93.7901C192.993 94.2008 192.834 94.5508 192.582 94.8401C192.339 95.1201 192.036 95.3348 191.672 95.4841C191.317 95.6334 190.939 95.7081 190.538 95.7081ZM190.65 94.7281C191.098 94.7281 191.485 94.6161 191.812 94.3921C192.148 94.1681 192.405 93.8508 192.582 93.4401C192.769 93.0201 192.862 92.5301 192.862 91.9701C192.862 91.4381 192.769 90.9808 192.582 90.5981C192.405 90.2154 192.153 89.9214 191.826 89.7161C191.509 89.5108 191.135 89.4081 190.706 89.4081C189.997 89.4081 189.446 89.6508 189.054 90.1361C188.662 90.6214 188.466 91.2654 188.466 92.0681C188.466 92.8708 188.657 93.5148 189.04 94.0001C189.423 94.4854 189.959 94.7281 190.65 94.7281ZM196.585 95.5681V88.5681H197.495L197.649 89.7161C197.845 89.2868 198.13 88.9648 198.503 88.7501C198.886 88.5354 199.348 88.4281 199.889 88.4281C200.011 88.4281 200.141 88.4374 200.281 88.4561C200.431 88.4748 200.557 88.5121 200.659 88.5681L200.463 89.5901C200.361 89.5528 200.249 89.5248 200.127 89.5061C200.006 89.4874 199.833 89.4781 199.609 89.4781C199.32 89.4781 199.026 89.5621 198.727 89.7301C198.438 89.8981 198.195 90.1548 197.999 90.5001C197.803 90.8361 197.705 91.2654 197.705 91.7881V95.5681H196.585ZM206.197 91.0461C206.197 90.5234 206.057 90.1221 205.777 89.8421C205.497 89.5528 205.1 89.4081 204.587 89.4081C204.101 89.4081 203.691 89.5154 203.355 89.7301C203.019 89.9354 202.771 90.2714 202.613 90.7381L201.703 90.1781C201.889 89.6554 202.235 89.2354 202.739 88.9181C203.243 88.5914 203.868 88.4281 204.615 88.4281C205.119 88.4281 205.576 88.5168 205.987 88.6941C206.397 88.8621 206.719 89.1234 206.953 89.4781C207.195 89.8234 207.317 90.2714 207.317 90.8221V94.2101C207.317 94.5461 207.494 94.7141 207.849 94.7141C208.026 94.7141 208.199 94.6908 208.367 94.6441L208.311 95.5261C208.124 95.6194 207.881 95.6661 207.583 95.6661C207.312 95.6661 207.069 95.6148 206.855 95.5121C206.64 95.4094 206.472 95.2554 206.351 95.0501C206.229 94.8354 206.169 94.5694 206.169 94.2521V94.1121L206.449 94.1541C206.337 94.5181 206.145 94.8168 205.875 95.0501C205.604 95.2741 205.301 95.4421 204.965 95.5541C204.629 95.6568 204.297 95.7081 203.971 95.7081C203.56 95.7081 203.177 95.6381 202.823 95.4981C202.468 95.3581 202.183 95.1481 201.969 94.8681C201.763 94.5788 201.661 94.2241 201.661 93.8041C201.661 93.2814 201.833 92.8521 202.179 92.5161C202.533 92.1708 203.023 91.9374 203.649 91.8161L206.421 91.2701V92.1941L204.167 92.6561C203.709 92.7494 203.369 92.8801 203.145 93.0481C202.921 93.2161 202.809 93.4494 202.809 93.7481C202.809 94.0374 202.921 94.2754 203.145 94.4621C203.378 94.6394 203.705 94.7281 204.125 94.7281C204.395 94.7281 204.652 94.6954 204.895 94.6301C205.147 94.5554 205.371 94.4481 205.567 94.3081C205.763 94.1588 205.917 93.9768 206.029 93.7621C206.141 93.5381 206.197 93.2768 206.197 92.9781V91.0461ZM215.932 87.2801L216.184 88.2741C216.175 88.2741 216.161 88.2741 216.142 88.2741C216.124 88.2741 216.105 88.2741 216.086 88.2741C215.629 88.2741 215.274 88.3674 215.022 88.5541C214.78 88.7314 214.658 89.0208 214.658 89.4221L213.972 89.0721C213.972 88.7081 214.056 88.3908 214.224 88.1201C214.392 87.8494 214.621 87.6441 214.91 87.5041C215.2 87.3548 215.517 87.2801 215.862 87.2801C215.872 87.2801 215.881 87.2801 215.89 87.2801C215.909 87.2801 215.923 87.2801 215.932 87.2801ZM213.804 94.6721C214.467 94.6721 214.985 94.8261 215.358 95.1341C215.732 95.4328 215.918 95.8341 215.918 96.3381C215.918 96.7954 215.764 97.1921 215.456 97.5281C215.158 97.8641 214.752 98.1208 214.238 98.2981C213.734 98.4848 213.165 98.5781 212.53 98.5781C211.429 98.5781 210.603 98.3914 210.052 98.0181C209.511 97.6448 209.24 97.1968 209.24 96.6741C209.24 96.3008 209.362 95.9648 209.604 95.6661C209.856 95.3768 210.276 95.2134 210.864 95.1761L210.766 95.3861C210.449 95.3021 210.178 95.1621 209.954 94.9661C209.74 94.7608 209.632 94.4668 209.632 94.0841C209.632 93.7014 209.772 93.3748 210.052 93.1041C210.342 92.8241 210.766 92.6514 211.326 92.5861L212.068 92.9641H211.928C211.471 93.0108 211.144 93.1274 210.948 93.3141C210.762 93.4914 210.668 93.6874 210.668 93.9021C210.668 94.1634 210.762 94.3594 210.948 94.4901C211.144 94.6114 211.415 94.6721 211.76 94.6721H213.804ZM212.516 97.6401C213.058 97.6401 213.501 97.5841 213.846 97.4721C214.201 97.3601 214.462 97.2154 214.63 97.0381C214.798 96.8608 214.882 96.6694 214.882 96.4641C214.882 96.2121 214.78 96.0114 214.574 95.8621C214.378 95.7128 214.019 95.6381 213.496 95.6381H211.34C211.042 95.6381 210.79 95.7128 210.584 95.8621C210.379 96.0208 210.276 96.2354 210.276 96.5061C210.276 96.8514 210.472 97.1268 210.864 97.3321C211.266 97.5374 211.816 97.6401 212.516 97.6401ZM212.418 88.4281C212.978 88.4281 213.473 88.5308 213.902 88.7361C214.341 88.9321 214.682 89.2074 214.924 89.5621C215.167 89.9168 215.288 90.3274 215.288 90.7941C215.288 91.2514 215.167 91.6621 214.924 92.0261C214.682 92.3808 214.341 92.6608 213.902 92.8661C213.473 93.0621 212.978 93.1601 212.418 93.1601C211.494 93.1601 210.785 92.9408 210.29 92.5021C209.796 92.0541 209.548 91.4848 209.548 90.7941C209.548 90.3274 209.67 89.9168 209.912 89.5621C210.164 89.2074 210.505 88.9321 210.934 88.7361C211.364 88.5308 211.858 88.4281 212.418 88.4281ZM212.418 89.3381C211.933 89.3381 211.527 89.4734 211.2 89.7441C210.874 90.0054 210.71 90.3554 210.71 90.7941C210.71 91.2234 210.874 91.5734 211.2 91.8441C211.527 92.1148 211.933 92.2501 212.418 92.2501C212.904 92.2501 213.31 92.1148 213.636 91.8441C213.963 91.5734 214.126 91.2234 214.126 90.7941C214.126 90.3554 213.963 90.0054 213.636 89.7441C213.31 89.4734 212.904 89.3381 212.418 89.3381ZM226.349 91.0461C226.349 90.5234 226.209 90.1221 225.929 89.8421C225.649 89.5528 225.252 89.4081 224.739 89.4081C224.254 89.4081 223.843 89.5154 223.507 89.7301C223.171 89.9354 222.924 90.2714 222.765 90.7381L221.855 90.1781C222.042 89.6554 222.387 89.2354 222.891 88.9181C223.395 88.5914 224.02 88.4281 224.767 88.4281C225.271 88.4281 225.728 88.5168 226.139 88.6941C226.55 88.8621 226.872 89.1234 227.105 89.4781C227.348 89.8234 227.469 90.2714 227.469 90.8221V94.2101C227.469 94.5461 227.646 94.7141 228.001 94.7141C228.178 94.7141 228.351 94.6908 228.519 94.6441L228.463 95.5261C228.276 95.6194 228.034 95.6661 227.735 95.6661C227.464 95.6661 227.222 95.6148 227.007 95.5121C226.792 95.4094 226.624 95.2554 226.503 95.0501C226.382 94.8354 226.321 94.5694 226.321 94.2521V94.1121L226.601 94.1541C226.489 94.5181 226.298 94.8168 226.027 95.0501C225.756 95.2741 225.453 95.4421 225.117 95.5541C224.781 95.6568 224.45 95.7081 224.123 95.7081C223.712 95.7081 223.33 95.6381 222.975 95.4981C222.62 95.3581 222.336 95.1481 222.121 94.8681C221.916 94.5788 221.813 94.2241 221.813 93.8041C221.813 93.2814 221.986 92.8521 222.331 92.5161C222.686 92.1708 223.176 91.9374 223.801 91.8161L226.573 91.2701V92.1941L224.319 92.6561C223.862 92.7494 223.521 92.8801 223.297 93.0481C223.073 93.2161 222.961 93.4494 222.961 93.7481C222.961 94.0374 223.073 94.2754 223.297 94.4621C223.53 94.6394 223.857 94.7281 224.277 94.7281C224.548 94.7281 224.804 94.6954 225.047 94.6301C225.299 94.5554 225.523 94.4481 225.719 94.3081C225.915 94.1588 226.069 93.9768 226.181 93.7621C226.293 93.5381 226.349 93.2768 226.349 92.9781V91.0461ZM230.191 95.5681V88.5681H231.171L231.269 90.1361L231.087 89.9821C231.236 89.6088 231.437 89.3101 231.689 89.0861C231.941 88.8528 232.23 88.6848 232.557 88.5821C232.893 88.4794 233.238 88.4281 233.593 88.4281C234.097 88.4281 234.554 88.5261 234.965 88.7221C235.375 88.9088 235.702 89.1981 235.945 89.5901C236.197 89.9821 236.323 90.4814 236.323 91.0881V95.5681H235.203V91.4801C235.203 90.7054 235.035 90.1688 234.699 89.8701C234.372 89.5621 233.966 89.4081 233.481 89.4081C233.145 89.4081 232.809 89.4874 232.473 89.6461C232.137 89.8048 231.857 90.0614 231.633 90.4161C231.418 90.7708 231.311 91.2468 231.311 91.8441V95.5681H230.191ZM241.589 95.7081C241.01 95.7081 240.478 95.5634 239.993 95.2741C239.507 94.9848 239.12 94.5694 238.831 94.0281C238.541 93.4774 238.397 92.8241 238.397 92.0681C238.397 91.2934 238.551 90.6354 238.859 90.0941C239.167 89.5528 239.573 89.1421 240.077 88.8621C240.581 88.5728 241.122 88.4281 241.701 88.4281C242.279 88.4281 242.779 88.5774 243.199 88.8761C243.628 89.1748 243.913 89.5714 244.053 90.0661L243.913 90.1641V85.3481H245.033V95.5681H244.053L243.955 93.8741L244.109 93.7901C244.043 94.2008 243.885 94.5508 243.633 94.8401C243.39 95.1201 243.087 95.3348 242.723 95.4841C242.368 95.6334 241.99 95.7081 241.589 95.7081ZM241.701 94.7281C242.149 94.7281 242.536 94.6161 242.863 94.3921C243.199 94.1681 243.455 93.8508 243.633 93.4401C243.819 93.0201 243.913 92.5301 243.913 91.9701C243.913 91.4381 243.819 90.9808 243.633 90.5981C243.455 90.2154 243.203 89.9214 242.877 89.7161C242.559 89.5108 242.186 89.4081 241.757 89.4081C241.047 89.4081 240.497 89.6508 240.105 90.1361C239.713 90.6214 239.517 91.2654 239.517 92.0681C239.517 92.8708 239.708 93.5148 240.091 94.0001C240.473 94.4854 241.01 94.7281 241.701 94.7281ZM255.137 95.7081C254.559 95.7081 254.027 95.5634 253.541 95.2741C253.056 94.9848 252.669 94.5694 252.379 94.0281C252.09 93.4774 251.945 92.8241 251.945 92.0681C251.945 91.2934 252.099 90.6354 252.407 90.0941C252.715 89.5528 253.121 89.1421 253.625 88.8621C254.129 88.5728 254.671 88.4281 255.249 88.4281C255.828 88.4281 256.327 88.5774 256.747 88.8761C257.177 89.1748 257.461 89.5714 257.601 90.0661L257.461 90.1641V85.3481H258.581V95.5681H257.601L257.503 93.8741L257.657 93.7901C257.592 94.2008 257.433 94.5508 257.181 94.8401C256.939 95.1201 256.635 95.3348 256.271 95.4841C255.917 95.6334 255.539 95.7081 255.137 95.7081ZM255.249 94.7281C255.697 94.7281 256.085 94.6161 256.411 94.3921C256.747 94.1681 257.004 93.8508 257.181 93.4401C257.368 93.0201 257.461 92.5301 257.461 91.9701C257.461 91.4381 257.368 90.9808 257.181 90.5981C257.004 90.2154 256.752 89.9214 256.425 89.7161C256.108 89.5108 255.735 89.4081 255.305 89.4081C254.596 89.4081 254.045 89.6508 253.653 90.1361C253.261 90.6214 253.065 91.2654 253.065 92.0681C253.065 92.8708 253.257 93.5148 253.639 94.0001C254.022 94.4854 254.559 94.7281 255.249 94.7281ZM261.185 95.5681V88.5681H262.095L262.249 89.7161C262.445 89.2868 262.729 88.9648 263.103 88.7501C263.485 88.5354 263.947 88.4281 264.489 88.4281C264.61 88.4281 264.741 88.4374 264.881 88.4561C265.03 88.4748 265.156 88.5121 265.259 88.5681L265.063 89.5901C264.96 89.5528 264.848 89.5248 264.727 89.5061C264.605 89.4874 264.433 89.4781 264.209 89.4781C263.919 89.4781 263.625 89.5621 263.327 89.7301C263.037 89.8981 262.795 90.1548 262.599 90.5001C262.403 90.8361 262.305 91.2654 262.305 91.7881V95.5681H261.185ZM269.579 88.4281C270.242 88.4281 270.825 88.5728 271.329 88.8621C271.842 89.1514 272.244 89.5714 272.533 90.1221C272.822 90.6634 272.967 91.3121 272.967 92.0681C272.967 92.8241 272.822 93.4774 272.533 94.0281C272.244 94.5694 271.842 94.9848 271.329 95.2741C270.825 95.5634 270.242 95.7081 269.579 95.7081C268.926 95.7081 268.342 95.5634 267.829 95.2741C267.316 94.9848 266.914 94.5694 266.625 94.0281C266.336 93.4774 266.191 92.8241 266.191 92.0681C266.191 91.3121 266.336 90.6634 266.625 90.1221C266.914 89.5714 267.316 89.1514 267.829 88.8621C268.342 88.5728 268.926 88.4281 269.579 88.4281ZM269.579 89.3941C269.103 89.3941 268.697 89.5014 268.361 89.7161C268.025 89.9308 267.764 90.2388 267.577 90.6401C267.4 91.0321 267.311 91.5081 267.311 92.0681C267.311 92.6188 267.4 93.0948 267.577 93.4961C267.764 93.8974 268.025 94.2054 268.361 94.4201C268.697 94.6348 269.103 94.7421 269.579 94.7421C270.055 94.7421 270.461 94.6348 270.797 94.4201C271.133 94.2054 271.39 93.8974 271.567 93.4961C271.754 93.0948 271.847 92.6188 271.847 92.0681C271.847 91.5081 271.754 91.0321 271.567 90.6401C271.39 90.2388 271.133 89.9308 270.797 89.7161C270.461 89.5014 270.055 89.3941 269.579 89.3941ZM275.075 98.5081V88.5681H276.055L276.153 90.2761L275.999 90.0801C276.121 89.7534 276.303 89.4688 276.545 89.2261C276.788 88.9741 277.082 88.7781 277.427 88.6381C277.773 88.4981 278.146 88.4281 278.547 88.4281C279.117 88.4281 279.639 88.5728 280.115 88.8621C280.601 89.1514 280.988 89.5668 281.277 90.1081C281.567 90.6494 281.711 91.3028 281.711 92.0681C281.711 92.8241 281.562 93.4774 281.263 94.0281C280.974 94.5694 280.587 94.9848 280.101 95.2741C279.616 95.5634 279.084 95.7081 278.505 95.7081C277.927 95.7081 277.418 95.5681 276.979 95.2881C276.55 94.9988 276.242 94.6348 276.055 94.1961L276.195 93.9861V98.5081H275.075ZM278.393 94.7281C279.084 94.7281 279.621 94.4854 280.003 94.0001C280.395 93.5148 280.591 92.8708 280.591 92.0681C280.591 91.2654 280.4 90.6214 280.017 90.1361C279.644 89.6508 279.117 89.4081 278.435 89.4081C277.987 89.4081 277.595 89.5201 277.259 89.7441C276.923 89.9588 276.662 90.2668 276.475 90.6681C276.289 91.0601 276.195 91.5268 276.195 92.0681C276.195 92.6001 276.284 93.0668 276.461 93.4681C276.648 93.8694 276.905 94.1821 277.231 94.4061C277.567 94.6208 277.955 94.7281 278.393 94.7281Z" fill="#7D7D7D"/>
<path d="M211.083 31.75H188.917C187.168 31.75 185.75 33.1678 185.75 34.9167V57.0833C185.75 58.8322 187.168 60.25 188.917 60.25H211.083C212.832 60.25 214.25 58.8322 214.25 57.0833V34.9167C214.25 33.1678 212.832 31.75 211.083 31.75Z" stroke="#7D7D7D" stroke-width="2" stroke-linecap="round" stroke-linejoin="round"/>
<path d="M194.458 42.8334C195.77 42.8334 196.833 41.7701 196.833 40.4584C196.833 39.1467 195.77 38.0834 194.458 38.0834C193.147 38.0834 192.083 39.1467 192.083 40.4584C192.083 41.7701 193.147 42.8334 194.458 42.8334Z" stroke="#7D7D7D" stroke-width="2" stroke-linecap="round" stroke-linejoin="round"/>
<path d="M214.25 50.75L206.333 42.8334L188.917 60.25" stroke="#7D7D7D" stroke-width="2" stroke-linecap="round" stroke-linejoin="round"/>
</svg>