<svg width="256" height="44" viewBox="0 0 256 44" fill="none" xmlns="http://www.w3.org/2000/svg">
<path d="M88.8175 43.48C87.5775 43.48 86.6175 43.14 85.9375 42.46C85.2975 41.74 84.9775 40.76 84.9775 39.52V4.6C84.9775 3.32 85.3175 2.36 85.9975 1.72C86.6775 1.04 87.6375 0.699997 88.8775 0.699997H103.337C107.977 0.699997 111.557 1.82 114.077 4.06C116.597 6.26 117.857 9.36 117.857 13.36C117.857 15.96 117.277 18.2 116.117 20.08C114.997 21.96 113.357 23.4 111.197 24.4C109.037 25.4 106.417 25.9 103.337 25.9L103.877 25H105.857C107.497 25 108.917 25.4 110.117 26.2C111.357 27 112.437 28.26 113.357 29.98L117.857 38.32C118.337 39.16 118.557 39.98 118.517 40.78C118.477 41.58 118.177 42.24 117.617 42.76C117.057 43.24 116.237 43.48 115.157 43.48C114.077 43.48 113.197 43.26 112.517 42.82C111.837 42.34 111.237 41.62 110.717 40.66L104.657 29.5C103.937 28.14 103.077 27.24 102.077 26.8C101.117 26.32 99.8775 26.08 98.3575 26.08H92.6575V39.52C92.6575 40.76 92.3375 41.74 91.6975 42.46C91.0575 43.14 90.0975 43.48 88.8175 43.48ZM92.6575 20.38H102.017C104.777 20.38 106.857 19.82 108.257 18.7C109.697 17.54 110.417 15.82 110.417 13.54C110.417 11.3 109.697 9.62 108.257 8.5C106.857 7.34 104.777 6.76 102.017 6.76H92.6575V20.38ZM129.95 43.48C128.71 43.48 127.75 43.14 127.07 42.46C126.43 41.74 126.11 40.76 126.11 39.52V4.18C126.11 2.9 126.43 1.92 127.07 1.24C127.75 0.559997 128.71 0.219996 129.95 0.219996C131.19 0.219996 132.13 0.559997 132.77 1.24C133.45 1.92 133.79 2.9 133.79 4.18V39.52C133.79 40.76 133.47 41.74 132.83 42.46C132.19 43.14 131.23 43.48 129.95 43.48ZM159.844 43.48C158.764 43.48 157.864 43.24 157.144 42.76C156.464 42.24 155.904 41.48 155.464 40.48L139.804 5.32C139.364 4.32 139.244 3.44 139.444 2.68C139.644 1.92 140.064 1.32 140.704 0.879999C141.344 0.439997 142.104 0.219996 142.984 0.219996C144.144 0.219996 145.004 0.479997 145.564 0.999997C146.164 1.48 146.664 2.22 147.064 3.22L161.284 36.16H158.704L172.864 3.16C173.304 2.2 173.824 1.48 174.424 0.999997C175.024 0.479997 175.864 0.219996 176.944 0.219996C177.824 0.219996 178.544 0.439997 179.104 0.879999C179.704 1.32 180.084 1.92 180.244 2.68C180.404 3.44 180.264 4.32 179.824 5.32L164.164 40.48C163.724 41.48 163.164 42.24 162.484 42.76C161.844 43.24 160.964 43.48 159.844 43.48ZM189.897 43C188.577 43 187.557 42.66 186.837 41.98C186.157 41.26 185.817 40.24 185.817 38.92V4.78C185.817 3.46 186.157 2.46 186.837 1.78C187.557 1.06 188.577 0.699997 189.897 0.699997H211.317C212.317 0.699997 213.077 0.959998 213.597 1.48C214.157 2 214.437 2.74 214.437 3.7C214.437 4.7 214.157 5.48 213.597 6.04C213.077 6.56 212.317 6.82 211.317 6.82H193.197V18.46H209.997C211.037 18.46 211.817 18.72 212.337 19.24C212.857 19.76 213.117 20.52 213.117 21.52C213.117 22.52 212.857 23.28 212.337 23.8C211.817 24.32 211.037 24.58 209.997 24.58H193.197V36.88H211.317C212.317 36.88 213.077 37.14 213.597 37.66C214.157 38.18 214.437 38.94 214.437 39.94C214.437 40.94 214.157 41.7 213.597 42.22C213.077 42.74 212.317 43 211.317 43H189.897ZM225.518 43C224.278 43 223.318 42.66 222.638 41.98C221.958 41.26 221.618 40.28 221.618 39.04V4.42C221.618 3.14 221.938 2.18 222.578 1.54C223.258 0.859999 224.218 0.52 225.458 0.52C226.698 0.52 227.638 0.859999 228.278 1.54C228.958 2.18 229.298 3.14 229.298 4.42V36.46H246.698C247.778 36.46 248.598 36.74 249.158 37.3C249.758 37.86 250.058 38.66 250.058 39.7C250.058 40.74 249.758 41.56 249.158 42.16C248.598 42.72 247.778 43 246.698 43H225.518Z" fill="white"/>
<ellipse cx="36" cy="33.5" rx="36" ry="8.5" fill="#EB1D36"/>
<ellipse rx="36" ry="6.5" transform="matrix(1 0 0 -1 36 23.5)" fill="#A2B5BB"/>
<ellipse rx="36" ry="8.5" transform="matrix(1 0 0 -1 36 13.5)" fill="#CFD2CF"/>
</svg>
