<svg width="121" height="41" viewBox="0 0 121 41" fill="none" xmlns="http://www.w3.org/2000/svg">
<g clip-path="url(#clip0_173_133)">
<path d="M67.5216 21.4205C68.7439 20.9038 69.7836 20.0442 70.5105 18.9497C71.2374 17.8552 71.6191 16.5743 71.6078 15.2677C71.6289 14.3535 71.4473 13.4458 71.0756 12.6074C70.7038 11.769 70.1508 11.0201 69.4549 10.4125C68.0252 9.10192 66.1273 8.39726 64.1722 8.45112H54.2188V29.5612L58.3353 28.2935V22.1108H63.3408L67.8596 29.5612H72.4358L67.5216 21.4205ZM64.1722 18.3773H58.3353V12.1879H64.1722C64.5871 12.1755 65.0002 12.2466 65.386 12.3968C65.7719 12.547 66.1223 12.7732 66.4158 13.0614C66.7093 13.3496 66.9396 13.6937 67.0926 14.0725C67.2456 14.4514 67.318 14.857 67.3053 15.2644C67.3197 15.6737 67.2488 16.0816 67.0968 16.4631C66.9449 16.8446 66.7152 17.1915 66.4219 17.4827C66.1285 17.7739 65.7776 18.0032 65.3908 18.1564C65.0039 18.3097 64.5893 18.3837 64.1722 18.374V18.3773Z" fill="#3F37C9"/>
<path d="M78.6412 13.8772H74.8018V29.5613H78.6412V13.8772Z" fill="#3F37C9"/>
<path d="M88.963 24.7956L84.5084 13.8772H80.5439L87.1176 29.5613H90.7746L97.3483 13.8772H93.3872L88.963 24.7956Z" fill="#3F37C9"/>
<path d="M114.798 21.7192C114.827 20.623 114.626 19.5326 114.209 18.5155C113.791 17.4983 113.166 16.576 112.371 15.8053C111.599 15.0263 110.67 14.4127 109.644 14.0032C108.618 13.5937 107.517 13.3971 106.409 13.4258C105.297 13.4039 104.191 13.6039 103.159 14.0135C102.127 14.4232 101.19 15.0341 100.405 15.8093C99.6204 16.5845 99.0039 17.5079 98.5929 18.5237C98.182 19.5395 97.985 20.6266 98.014 21.7192C97.9869 22.8224 98.191 23.9193 98.6137 24.9418C99.0364 25.9642 99.6686 26.8905 100.471 27.663C102.066 29.1757 104.199 30.0175 106.416 30.0093H111.824L113.223 26.5446H106.599C105.553 26.5482 104.535 26.2134 103.702 25.592C102.869 24.9705 102.268 24.0969 101.992 23.1064H114.68C114.755 22.6476 114.794 22.1839 114.798 21.7192ZM102.016 20.1827C102.276 19.2468 102.84 18.4197 103.622 17.8263C104.403 17.233 105.361 16.9057 106.349 16.8939C107.358 16.8933 108.34 17.2134 109.148 17.8062C109.956 18.3989 110.548 19.2326 110.834 20.1827H102.016Z" fill="#3F37C9"/>
<path d="M121 7.03735V29.5612H117.161V8.22212L121 7.03735Z" fill="#3F37C9"/>
<path d="M74.8018 11.4479L78.6412 10.2631V7.28296H74.8018V11.4479Z" fill="#3F37C9"/>
<path d="M0 19.2965H8.18586L19.4676 8.21874V0.180908L0 19.2965Z" fill="#3F37C9"/>
<path d="M21.2725 8.21874L32.5508 19.2965H40.7367L21.2725 0.180908V8.21874Z" fill="#4361EE"/>
<path d="M21.2725 40.1809L40.7367 21.0686H32.5508L21.2725 32.143V40.1809Z" fill="#3F37C9"/>
<path d="M19.4677 40.1809V32.143V21.0686H0.00341797L19.4677 40.1809Z" fill="#4361EE"/>
<path d="M21.2725 3.49951V19.2964H37.3468L21.2725 3.49951ZM22.6244 6.66553L34.136 17.9855H22.6075L22.6244 6.66553Z" fill="#4361EE"/>
</g>
<defs>
<clipPath id="clip0_173_133">
<rect width="121" height="40" fill="white" transform="translate(0 0.180908)"/>
</clipPath>
</defs>
</svg>
